<?xml version="1.0" standalone="no"?>
<!DOCTYPE svg PUBLIC "-//W3C//DTD SVG 20010904//EN"
 "http://www.w3.org/TR/2001/REC-SVG-20010904/DTD/svg10.dtd">
<svg version="1.0" xmlns="http://www.w3.org/2000/svg"
 width="512.000000pt" height="512.000000pt" viewBox="0 0 512.000000 512.000000"
 preserveAspectRatio="xMidYMid meet">

<g transform="translate(0.000000,512.000000) scale(0.100000,-0.100000)"
fill="#000000" stroke="none">
<path d="M2485 5111 c-92 -24 -173 -90 -215 -176 l-25 -50 -3 -1002 -2 -1003
-1003 -2 -1002 -3 -50 -25 c-64 -31 -124 -91 -155 -155 -34 -69 -35 -198 -2
-265 34 -71 75 -113 144 -151 l63 -34 1002 -3 1003 -2 2 -1003 3 -1002 23 -45
c35 -72 75 -114 144 -151 58 -31 70 -34 148 -34 78 0 90 3 148 34 70 38 100
69 140 145 l27 51 3 1002 2 1003 1003 2 1002 3 51 27 c76 40 107 70 145 140
31 58 34 70 34 148 0 78 -3 90 -34 148 -37 69 -79 109 -151 144 l-45 23 -1002
3 -1003 2 -2 1003 -3 1002 -34 63 c-57 105 -144 160 -260 167 -36 2 -79 1 -96
-4z"/>
</g>
</svg>
