<?xml version="1.0" standalone="no"?>
<!DOCTYPE svg PUBLIC "-//W3C//DTD SVG 20010904//EN"
 "http://www.w3.org/TR/2001/REC-SVG-20010904/DTD/svg10.dtd">
<svg version="1.0" xmlns="http://www.w3.org/2000/svg"
 width="512.000000pt" height="512.000000pt" viewBox="0 0 512.000000 512.000000"
 preserveAspectRatio="xMidYMid meet">

<g transform="translate(0.000000,512.000000) scale(0.100000,-0.100000)"
fill="#000000" stroke="none">
<path d="M2020 5109 c-1020 -104 -1844 -888 -1995 -1899 -102 -687 123 -1389
604 -1884 193 -198 382 -335 626 -456 708 -351 1557 -297 2219 140 l109 72
511 -510 c581 -580 564 -566 706 -566 100 -1 159 23 225 89 64 63 89 125 89
220 2 147 16 129 -565 711 l-511 511 72 109 c84 127 205 370 249 499 41 121
78 272 97 391 22 140 29 416 15 555 -92 892 -682 1632 -1523 1913 -295 99
-624 136 -928 105z m500 -669 c424 -69 815 -324 1055 -685 110 -166 185 -341
231 -541 39 -170 45 -425 15 -601 -115 -677 -637 -1199 -1314 -1315 -170 -29
-441 -22 -597 15 -628 150 -1082 607 -1221 1229 -33 145 -38 435 -11 593 60
348 231 666 485 900 373 343 855 487 1357 405z"/>
</g>
</svg>
